<svg id="图层_1" data-name="图层 1" xmlns="http://www.w3.org/2000/svg" viewBox="0 0 72.54 33.64"><defs><style>.cls-1{fill:#fff;}</style></defs><title>透明字_透明底</title><path class="cls-1" d="M39,185.42a6,6,0,0,1-10.53,0H24.32a9.81,9.81,0,0,0,18.75,0Z" transform="translate(-23.88 -158.7)"/><path class="cls-1" d="M96.41,166.93v-6.67c-2.26.45-4-.56-4,1.83a1.36,1.36,0,0,0,0,.2h0v3.1a9.74,9.74,0,0,0-5.89-2,9.88,9.88,0,0,0-8.17,4.37l2.37,3.9a6,6,0,0,1,10.77-1.77,6,6,0,0,1-.73,7.59,6,6,0,0,1-4.25,1.76A6.32,6.32,0,0,1,81.24,176l-4.38-7.32a9.83,9.83,0,0,0-16.66-1.25v11.59a9.81,9.81,0,0,0,16.13-.32l-2.39-3.93v0a6.08,6.08,0,0,1-1.8,2.91l-.08.08-.24.19-.21.15-.18.13-.36.22-.08,0a5.89,5.89,0,0,1-2.84.73A6,6,0,1,1,69.3,167.4l.47.12.22.06.3.11.32.13.19.1.43.23.08,0a6.07,6.07,0,0,1,2,2h0l2,3.4,1,1.58.64,1,.33.57,1.15,1.9.34.51a9.83,9.83,0,0,0,17.64-5.81h0v-6.49Z" transform="translate(-23.88 -158.7)"/><path class="cls-1" d="M52.32,183.1a9.82,9.82,0,1,1,9.82-9.82A9.84,9.84,0,0,1,52.32,183.1Zm0-15.84a6,6,0,1,0,6,6A6,6,0,0,0,52.32,167.26Z" transform="translate(-23.88 -158.7)"/><path class="cls-1" d="M33.69,183.13a9.82,9.82,0,1,1,9.82-9.82A9.83,9.83,0,0,1,33.69,183.13Zm0-15.83a6,6,0,1,0,6,6A6,6,0,0,0,33.69,167.3Z" transform="translate(-23.88 -158.7)"/><rect class="cls-1" x="68.56" width="3.98" height="6.3"/></svg>