<svg id="图层_1" data-name="图层 1" xmlns="http://www.w3.org/2000/svg" viewBox="0 0 139.07 34.94"><defs><style>.cls-1{fill:#fff;}</style></defs><title>透明字英文-中文_透明底</title><path class="cls-1" d="M39,185.42a6,6,0,0,1-10.53,0H24.32a9.81,9.81,0,0,0,18.75,0Z" transform="translate(-23.88 -157.4)"/><path class="cls-1" d="M96.41,166.93v-6.67c-2.26.45-4-.56-4,1.83a1.36,1.36,0,0,0,0,.2h0v3.1a9.74,9.74,0,0,0-5.89-2,9.88,9.88,0,0,0-8.17,4.37l2.37,3.9a6,6,0,0,1,10.77-1.77,6,6,0,0,1-.73,7.59,6,6,0,0,1-4.25,1.76A6.32,6.32,0,0,1,81.24,176l-4.38-7.32a9.83,9.83,0,0,0-16.66-1.25v11.59a9.81,9.81,0,0,0,16.13-.32l-2.39-3.93v0a6.08,6.08,0,0,1-1.8,2.91l-.08.08-.24.19-.21.15-.18.13-.36.22-.08,0a5.89,5.89,0,0,1-2.84.73A6,6,0,1,1,69.3,167.4l.47.12.22.06.3.11.32.13.19.1.43.23.08,0a6.07,6.07,0,0,1,2,2h0l2,3.4,1,1.58.64,1,.33.57,1.15,1.9.34.51a9.83,9.83,0,0,0,17.64-5.81h0v-6.49Z" transform="translate(-23.88 -157.4)"/><path class="cls-1" d="M52.32,183.1a9.82,9.82,0,1,1,9.82-9.82A9.84,9.84,0,0,1,52.32,183.1Zm0-15.84a6,6,0,1,0,6,6A6,6,0,0,0,52.32,167.26Z" transform="translate(-23.88 -157.4)"/><path class="cls-1" d="M33.69,183.13a9.82,9.82,0,1,1,9.82-9.82A9.83,9.83,0,0,1,33.69,183.13Zm0-15.83a6,6,0,1,0,6,6A6,6,0,0,0,33.69,167.3Z" transform="translate(-23.88 -157.4)"/><rect class="cls-1" x="68.56" y="1.3" width="3.98" height="6.3"/><path class="cls-1" d="M111.18,171.36c-1.14-1.06-2.72-2.38-4.77-4l2-2.27c1.74,1.28,3.36,2.57,4.88,3.86Zm-.79,13.17-3.07-1.14a79.24,79.24,0,0,0,3-10.1l2.39.79a4.19,4.19,0,0,1,.79.23c-.45,1.59-1.25,4.24-2.38,7.95C110.76,183.24,110.54,184,110.39,184.53Zm1.93-20.44q-2.38-2-4.89-4l2-2.16c.91.61,2.27,1.59,4.08,3a10.21,10.21,0,0,1,.8.68Zm3.29,19.08V159.1h17.71v3H118.79v18.39h14.87v2.73Z" transform="translate(-23.88 -157.4)"/><path class="cls-1" d="M138.31,164.21a5.57,5.57,0,0,0-2.15-.91,15.42,15.42,0,0,0,2.49-5.11l2.27.23a3.5,3.5,0,0,0-.22.79c-.16.46-.27.76-.34.91h2.38V157.4h2.5v2.72h3.18v2.16h-3.18v2.16h3.4v2h-2.49v2.27c.15-.08.56-.27,1.24-.57a14.17,14.17,0,0,0,1.37-.57l.22,2a29.44,29.44,0,0,0-4.77,2.15l-1.24-1.7a1.94,1.94,0,0,0,.79-1.7v-1.93h-2q0,4.43-4.66,6.7c-.53-.76-1-1.44-1.47-2.05q3.63-1.59,3.74-4.65H136v-2h6.7v-2.16h-3.29l-.34.68A12.8,12.8,0,0,1,138.31,164.21Zm23.05,20.32q-6.48-2.39-12-4-2.26,2.83-12.37,4.08a23,23,0,0,0-1.36-2.72q7.38-.57,9.76-1.93c1.66-.76,2.53-2.23,2.61-4.43H151a8.67,8.67,0,0,1-.57,2.84q2.39.67,6.92,2,3.52.92,5.34,1.48Zm-22.37-5v-7.38h20.89v7.27h-3.06v-5H142.06v5.11Zm11.81-15.44-.8-.34a5.24,5.24,0,0,0-1.24-.56,13.67,13.67,0,0,0,2.38-5.11l2.27.22a3.67,3.67,0,0,0-.23.8,6.67,6.67,0,0,1-.34,1H155V157.4h2.61v2.72h4.65v2.16h-4.65v2.16H163v2h-4.32v1.7c-.07.76.23,1.1.91,1h.34c.61,0,1-.26,1-.79a4.73,4.73,0,0,0,.23-1.48l1.36.34a1.78,1.78,0,0,0,.46.12,9.45,9.45,0,0,1-.23,2,2.22,2.22,0,0,1-2.61,1.7h-1.36a2.2,2.2,0,0,1-2.5-2.49v-2.16h-1.82a6.18,6.18,0,0,1-4.08,5.56,12.57,12.57,0,0,0-1.25-1.59,1.8,1.8,0,0,0-.23-.34q3-1.25,3.06-3.63h-2.38v-2H155v-2.16h-3.07a1.15,1.15,0,0,0-.22.45A10.83,10.83,0,0,1,150.8,164.09Z" transform="translate(-23.88 -157.4)"/></svg>